<mxfile host="65bd71144e">
    <diagram id="uRZuyoDfzD4bX0btLUUX" name="Page-1">
        <mxGraphModel dx="460" dy="388" grid="0" gridSize="10" guides="1" tooltips="1" connect="1" arrows="1" fold="1" page="1" pageScale="1" pageWidth="850" pageHeight="1100" background="#ffffff" math="0" shadow="0">
            <root>
                <mxCell id="0"/>
                <mxCell id="1" parent="0"/>
                <mxCell id="5" value="Features" style="whiteSpace=wrap;html=1;aspect=fixed;" vertex="1" parent="1">
                    <mxGeometry x="385" y="201" width="80" height="80" as="geometry"/>
                </mxCell>
                <mxCell id="10" value="" style="endArrow=classic;html=1;strokeColor=#000000;" edge="1" parent="1">
                    <mxGeometry relative="1" as="geometry">
                        <mxPoint x="285" y="240.84" as="sourcePoint"/>
                        <mxPoint x="385" y="240.84" as="targetPoint"/>
                    </mxGeometry>
                </mxCell>
                <mxCell id="12" value="" style="ellipse;shape=cloud;whiteSpace=wrap;html=1;strokeColor=#000000;" vertex="1" parent="1">
                    <mxGeometry x="258" y="226.75" width="34" height="28.5" as="geometry"/>
                </mxCell>
                <mxCell id="16" value="" style="endArrow=classic;html=1;strokeColor=#000000;startArrow=none;" edge="1" parent="1" source="18">
                    <mxGeometry relative="1" as="geometry">
                        <mxPoint x="465" y="241.84000000000003" as="sourcePoint"/>
                        <mxPoint x="565" y="241.84000000000003" as="targetPoint"/>
                    </mxGeometry>
                </mxCell>
                <mxCell id="18" value="" style="ellipse;shape=cloud;whiteSpace=wrap;html=1;strokeColor=#000000;" vertex="1" parent="1">
                    <mxGeometry x="560" y="226.75" width="34" height="28.5" as="geometry"/>
                </mxCell>
                <mxCell id="19" value="" style="endArrow=none;html=1;strokeColor=#000000;" edge="1" parent="1" target="18">
                    <mxGeometry relative="1" as="geometry">
                        <mxPoint x="465" y="241.84000000000003" as="sourcePoint"/>
                        <mxPoint x="565" y="241.84000000000003" as="targetPoint"/>
                    </mxGeometry>
                </mxCell>
                <mxCell id="21" value="&lt;font color=&quot;#000000&quot; style=&quot;font-size: 9px&quot;&gt;Increased Time, Budget, and Resources&lt;/font&gt;" style="text;html=1;strokeColor=none;fillColor=none;align=center;verticalAlign=middle;whiteSpace=wrap;rounded=0;" vertex="1" parent="1">
                    <mxGeometry x="273.5" y="183" width="112" height="30" as="geometry"/>
                </mxCell>
                <mxCell id="26" value="" style="group" vertex="1" connectable="0" parent="1">
                    <mxGeometry x="318" y="222" width="23" height="36" as="geometry"/>
                </mxCell>
                <mxCell id="25" value="" style="whiteSpace=wrap;html=1;aspect=fixed;fontColor=#000000;strokeColor=#000000;" vertex="1" parent="26">
                    <mxGeometry x="6.361126408010012" y="2.823529411764706" width="10.27659574468085" height="10.27659574468085" as="geometry"/>
                </mxCell>
                <mxCell id="22" value="" style="ellipse;whiteSpace=wrap;html=1;aspect=fixed;fontColor=#000000;strokeColor=#000000;" vertex="1" parent="26">
                    <mxGeometry x="1.526808510638298" y="12.705882352941176" width="19.94868585732165" height="19.94868585732165" as="geometry"/>
                </mxCell>
                <mxCell id="24" value="" style="rounded=1;whiteSpace=wrap;html=1;fontColor=#000000;strokeColor=#000000;" vertex="1" parent="26">
                    <mxGeometry width="23" height="7.058823529411765" as="geometry"/>
                </mxCell>
                <mxCell id="27" value="" style="group" vertex="1" connectable="0" parent="1">
                    <mxGeometry x="501" y="222" width="23" height="36" as="geometry"/>
                </mxCell>
                <mxCell id="28" value="" style="whiteSpace=wrap;html=1;aspect=fixed;fontColor=#000000;strokeColor=#000000;" vertex="1" parent="27">
                    <mxGeometry x="6.361126408010012" y="2.823529411764706" width="10.27659574468085" height="10.27659574468085" as="geometry"/>
                </mxCell>
                <mxCell id="29" value="" style="ellipse;whiteSpace=wrap;html=1;aspect=fixed;fontColor=#000000;strokeColor=#000000;" vertex="1" parent="27">
                    <mxGeometry x="1.526808510638298" y="12.705882352941176" width="19.94868585732165" height="19.94868585732165" as="geometry"/>
                </mxCell>
                <mxCell id="30" value="" style="rounded=1;whiteSpace=wrap;html=1;fontColor=#000000;strokeColor=#000000;" vertex="1" parent="27">
                    <mxGeometry width="23" height="7.058823529411765" as="geometry"/>
                </mxCell>
                <mxCell id="36" value="Decreased Time, Budget, and Resources" style="text;html=1;strokeColor=none;fillColor=none;align=center;verticalAlign=middle;whiteSpace=wrap;rounded=0;fontSize=9;fontColor=#000000;" vertex="1" parent="1">
                    <mxGeometry x="474" y="183" width="100.5" height="30" as="geometry"/>
                </mxCell>
                <mxCell id="37" value="" style="edgeStyle=segmentEdgeStyle;endArrow=classic;html=1;fontSize=9;fontColor=#000000;strokeColor=#000000;exitX=0.5;exitY=1;exitDx=0;exitDy=0;" edge="1" parent="1" source="5">
                    <mxGeometry width="50" height="50" relative="1" as="geometry">
                        <mxPoint x="416" y="316" as="sourcePoint"/>
                        <mxPoint x="329" y="255.25" as="targetPoint"/>
                        <Array as="points">
                            <mxPoint x="425" y="321"/>
                            <mxPoint x="329" y="321"/>
                        </Array>
                    </mxGeometry>
                </mxCell>
                <mxCell id="38" value="" style="endArrow=classic;html=1;fontSize=9;fontColor=#000000;strokeColor=#000000;" edge="1" parent="1">
                    <mxGeometry width="50" height="50" relative="1" as="geometry">
                        <mxPoint x="271" y="300" as="sourcePoint"/>
                        <mxPoint x="321" y="250" as="targetPoint"/>
                    </mxGeometry>
                </mxCell>
                <mxCell id="39" value="Increased Team Velocity" style="text;html=1;strokeColor=none;fillColor=none;align=center;verticalAlign=middle;whiteSpace=wrap;rounded=0;fontSize=9;fontColor=#000000;" vertex="1" parent="1">
                    <mxGeometry x="229" y="302" width="60" height="30" as="geometry"/>
                </mxCell>
                <mxCell id="42" value="More Story Points" style="text;html=1;strokeColor=none;fillColor=none;align=center;verticalAlign=middle;whiteSpace=wrap;rounded=0;fontSize=9;fontColor=#000000;" vertex="1" parent="1">
                    <mxGeometry x="344" y="322" width="60" height="30" as="geometry"/>
                </mxCell>
                <mxCell id="45" value="" style="edgeStyle=segmentEdgeStyle;endArrow=classic;html=1;fontSize=9;fontColor=#000000;strokeColor=#000000;exitX=0.5;exitY=1;exitDx=0;exitDy=0;" edge="1" parent="1" source="5">
                    <mxGeometry width="50" height="50" relative="1" as="geometry">
                        <mxPoint x="462" y="305.25" as="sourcePoint"/>
                        <mxPoint x="512" y="255.25" as="targetPoint"/>
                        <Array as="points">
                            <mxPoint x="425" y="320"/>
                            <mxPoint x="512" y="320"/>
                        </Array>
                    </mxGeometry>
                </mxCell>
                <mxCell id="46" value="Less Story Points" style="text;html=1;strokeColor=none;fillColor=none;align=center;verticalAlign=middle;whiteSpace=wrap;rounded=0;fontSize=9;fontColor=#000000;" vertex="1" parent="1">
                    <mxGeometry x="441" y="322" width="60" height="30" as="geometry"/>
                </mxCell>
                <mxCell id="47" value="" style="endArrow=classic;html=1;fontSize=9;fontColor=#000000;strokeColor=#000000;entryX=1;entryY=1;entryDx=0;entryDy=0;" edge="1" parent="1" target="29">
                    <mxGeometry width="50" height="50" relative="1" as="geometry">
                        <mxPoint x="563" y="306" as="sourcePoint"/>
                        <mxPoint x="590" y="269" as="targetPoint"/>
                    </mxGeometry>
                </mxCell>
                <mxCell id="49" value="Decreased Team Velocity" style="text;html=1;strokeColor=none;fillColor=none;align=center;verticalAlign=middle;whiteSpace=wrap;rounded=0;fontSize=9;fontColor=#000000;" vertex="1" parent="1">
                    <mxGeometry x="547" y="302" width="60" height="30" as="geometry"/>
                </mxCell>
            </root>
        </mxGraphModel>
    </diagram>
</mxfile>